<?xml version="1.0" encoding="UTF-8"?>
<svg width="79px" height="24px" viewBox="0 0 441 133" version="1.1" xmlns="http://www.w3.org/2000/svg" xmlns:xlink="http://www.w3.org/1999/xlink">
    <!-- Generator: Sketch 43.2 (39069) - http://www.bohemiancoding.com/sketch -->
    <title>amazon-logo</title>
    <desc>Created with Sketch.</desc>
    <defs>
        <polygon id="path-1" points="213.919758 48.94 0.919228361 48.94 0.919228361 0.995198479 213.919758 0.995198479"></polygon>
        <polygon id="path-3" points="121.871546 0.373 0.06 0.373 0.06 78.224 243.683092 78.224 243.683092 0.373"></polygon>
    </defs>
    <g id="Page-1" stroke="none" stroke-width="1" fill="none" fill-rule="evenodd">
        <g id="amazon-logo">
            <g id="Group-3" transform="translate(61.000000, 84.000000)">
                <mask id="mask-2" fill="white">
                    <use xlink:href="#path-1"></use>
                </mask>
                <g id="Clip-2"></g>
                <path d="M212.039,20.095 C186.47,38.967 149.399,49 117.471,49 C72.729,49 32.443,32.464 1.948,4.932 C-0.437,2.776 1.695,-0.187 4.573,1.487 C37.465,20.637 78.149,32.163 120.157,32.163 C148.496,32.163 179.653,26.285 208.317,14.121 C212.641,12.291 216.266,16.976 212.039,20.095" id="Fill-1" fill="#F0A92D" mask="url(#mask-2)"></path>
            </g>
            <path d="M283.681,91.949 C280.405,87.758 262.062,89.961 253.812,90.949 C251.319,91.25 250.934,89.07 253.186,87.493 C267.819,77.207 291.798,80.182 294.592,83.615 C297.399,87.095 293.858,111.134 280.14,122.612 C278.032,124.383 276.021,123.431 276.96,121.107 C280.043,113.399 286.957,96.14 283.681,91.949" id="Fill-4" fill="#F0A92D"></path>
            <path d="M254.399,14.86 L254.399,4.876 C254.411,3.347 255.555,2.335 256.928,2.335 L301.707,2.335 C303.14,2.335 304.284,3.383 304.284,4.864 L304.284,13.427 C304.272,14.86 303.067,16.739 300.912,19.714 L277.727,52.834 C286.327,52.63 295.444,53.918 303.26,58.314 C305.019,59.302 305.5,60.771 305.633,62.216 L305.633,72.875 C305.633,74.344 304.031,76.043 302.345,75.151 C288.555,67.937 270.272,67.142 255.037,75.248 C253.471,76.067 251.845,74.393 251.845,72.923 L251.845,62.794 C251.845,61.169 251.87,58.398 253.508,55.93 L280.377,17.378 L256.988,17.378 C255.555,17.378 254.411,16.354 254.399,14.86" id="Fill-5" fill="#1B1A18"></path>
            <path d="M91.075,77.255 L77.453,77.255 C76.153,77.171 75.117,76.196 75.021,74.955 L75.021,5.041 C75.021,3.644 76.201,2.524 77.658,2.524 L90.34,2.524 C91.665,2.584 92.737,3.596 92.821,4.873 L92.821,14.002 L93.074,14.002 C96.374,5.174 102.613,1.055 110.995,1.055 C119.522,1.055 124.857,5.174 128.675,14.002 C131.975,5.174 139.479,1.055 147.488,1.055 C153.208,1.055 159.447,3.403 163.253,8.702 C167.577,14.58 166.697,23.119 166.697,30.622 L166.685,74.738 C166.685,76.135 165.505,77.255 164.06,77.255 L150.45,77.255 C149.077,77.171 148.006,76.087 148.006,74.75 L148.006,37.68 C148.006,34.741 148.258,27.382 147.62,24.588 C146.596,19.879 143.549,18.554 139.611,18.554 C136.299,18.554 132.867,20.758 131.47,24.299 C130.072,27.828 130.205,33.705 130.205,37.68 L130.205,74.738 C130.205,76.135 129.025,77.255 127.579,77.255 L113.97,77.255 C112.597,77.171 111.525,76.087 111.525,74.75 L111.513,37.68 C111.513,29.887 112.778,18.41 103.119,18.41 C93.327,18.41 93.712,29.586 93.712,37.68 L93.7,74.738 C93.7,76.135 92.532,77.255 91.075,77.255" id="Fill-6" fill="#1B1A18"></path>
            <path d="M342.958,15.319 C332.913,15.319 332.275,29.001 332.275,37.528 C332.275,46.067 332.154,64.313 342.825,64.313 C353.387,64.313 353.893,49.596 353.893,40.623 C353.893,34.734 353.64,27.676 351.858,22.088 C350.328,17.234 347.281,15.319 342.958,15.319 M342.825,1.047 C363.047,1.047 373.982,18.414 373.982,40.479 C373.982,61.808 361.902,78.73 342.825,78.73 C322.989,78.73 312.186,61.362 312.186,39.744 C312.186,17.969 323.121,1.047 342.825,1.047" id="Fill-7" fill="#1B1A18"></path>
            <path d="M400.202,77.255 L386.628,77.255 C385.267,77.171 384.183,76.087 384.183,74.75 L384.159,4.8 C384.28,3.524 385.412,2.524 386.785,2.524 L399.419,2.524 C400.599,2.584 401.587,3.391 401.839,4.475 L401.839,15.17 L402.092,15.17 C405.91,5.607 411.246,1.055 420.652,1.055 C426.758,1.055 432.732,3.259 436.549,9.293 C440.114,14.881 440.114,24.299 440.114,31.068 L440.114,75.051 C439.958,76.292 438.85,77.255 437.501,77.255 L423.843,77.255 C422.579,77.171 421.567,76.244 421.423,75.051 L421.423,37.09 C421.423,29.442 422.314,18.265 412.896,18.265 C409.596,18.265 406.536,20.469 405.019,23.854 C403.116,28.117 402.851,32.38 402.851,37.09 L402.851,74.738 C402.827,76.135 401.647,77.255 400.202,77.255" id="Fill-8" fill="#1B1A18"></path>
            <g id="Group-12">
                <mask id="mask-4" fill="white">
                    <use xlink:href="#path-3"></use>
                </mask>
                <g id="Clip-10"></g>
                <path d="M232.439,77.08 C231.536,77.886 230.235,77.947 229.224,77.393 C224.695,73.635 223.888,71.901 221.419,68.324 C213.94,75.935 208.641,78.224 198.958,78.224 C187.492,78.224 178.568,71.142 178.568,56.991 C178.568,45.935 184.553,38.419 193.092,34.722 C200.487,31.482 210.809,30.892 218.709,30.013 L218.709,28.242 C218.709,24.99 218.962,21.16 217.047,18.366 C215.397,15.849 212.206,14.826 209.4,14.826 C204.209,14.826 199.596,17.487 198.452,23.003 C198.223,24.232 197.32,25.448 196.091,25.508 L182.891,24.075 C181.771,23.822 180.531,22.931 180.856,21.233 C183.891,5.215 198.356,0.373 211.315,0.373 C217.939,0.373 226.61,2.143 231.825,7.154 C238.461,13.344 237.823,21.606 237.823,30.603 L237.823,51.824 C237.823,58.207 240.473,61.001 242.966,64.446 C243.833,65.686 244.025,67.156 242.917,68.059 C240.135,70.395 235.185,74.695 232.476,77.116 L232.439,77.08 Z M218.709,43.863 C218.709,49.174 218.83,53.594 216.156,58.315 C213.988,62.145 210.556,64.506 206.726,64.506 C201.499,64.506 198.44,60.532 198.44,54.63 C198.44,43.032 208.846,40.924 218.709,40.924 L218.709,43.863 L218.709,43.863 Z" id="Fill-9" fill="#1B1A18" mask="url(#mask-4)"></path>
                <path d="M53.872,77.08 C52.968,77.886 51.668,77.947 50.656,77.393 C46.128,73.635 45.321,71.901 42.84,68.324 C35.373,75.935 30.073,78.224 20.39,78.224 C8.924,78.224 0,71.142 0,56.991 C0,45.935 5.986,38.419 14.525,34.722 C21.92,31.482 32.241,30.892 40.142,30.013 L40.142,28.242 C40.142,24.99 40.395,21.16 38.48,18.366 C36.83,15.849 33.638,14.826 30.832,14.826 C25.641,14.826 21.016,17.487 19.884,23.003 C19.655,24.232 18.752,25.448 17.524,25.508 L4.324,24.075 C3.204,23.822 1.963,22.931 2.288,21.233 C5.323,5.215 19.788,0.373 32.747,0.373 C39.371,0.373 48.043,2.143 53.27,7.154 C59.894,13.344 59.255,21.606 59.255,30.603 L59.255,51.824 C59.255,58.207 61.905,61.001 64.398,64.446 C65.265,65.686 65.458,67.156 64.35,68.059 C61.568,70.395 56.618,74.695 53.908,77.116 L53.872,77.08 Z M40.142,43.863 C40.142,49.174 40.262,53.594 37.589,58.315 C35.421,62.145 31.988,64.506 28.158,64.506 C22.931,64.506 19.872,60.532 19.872,54.63 C19.872,43.032 30.29,40.924 40.142,40.924 L40.142,43.863 L40.142,43.863 Z" id="Fill-11" fill="#1B1A18" mask="url(#mask-4)"></path>
            </g>
        </g>
    </g>
</svg>
