<?xml version="1.0" encoding="utf-8"?>
<!-- Generator: Adobe Illustrator 16.0.0, SVG Export Plug-In . SVG Version: 6.00 Build 0)  -->
<!DOCTYPE svg PUBLIC "-//W3C//DTD SVG 1.1//EN" "http://www.w3.org/Graphics/SVG/1.1/DTD/svg11.dtd">
<svg version="1.1" id="Layer_1" xmlns="http://www.w3.org/2000/svg" xmlns:xlink="http://www.w3.org/1999/xlink" x="0" y="0"
	 width="129px" height="24px" viewBox="223.2260742 376.5371094 165.2397461 30.0371094"
	 enable-background="new 223.2260742 376.5371094 165.2397461 30.0371094" xml:space="preserve">
<g id="Light_Logo">
	<g>
		<path fill="#E7B529" d="M315.0039062,394.3369141c3.8847656-0.3388672,6.7666016-3.7719727,6.4267578-7.6538086
			c-0.3398438-3.8803711-3.7734375-6.7626953-7.6552734-6.4228516c-3.8808594,0.3398438-6.7636719,3.7724609-6.4238281,7.652832
			C307.6884766,391.7958984,311.1220703,394.6767578,315.0039062,394.3369141"/>
	</g>
	<g>
		<path fill="#E7B529" d="M319.0195312,396.0292969c-2.9091797,0-5.2724609,2.3662109-5.2724609,5.2714844
			c0,2.9072266,2.3632812,5.2734375,5.2724609,5.2734375c2.9042969,0,5.2714844-2.3662109,5.2714844-5.2734375
			C324.2910156,398.3955078,321.9238281,396.0292969,319.0195312,396.0292969"/>
	</g>
	<g>
		<path fill="#E7B529" d="M321.3427734,380.3647461c1.0439453-0.0917969,1.8222656-1.015625,1.7314453-2.0615234
			c-0.0927734-1.0458984-1.0166016-1.8212891-2.0644531-1.7294922c-1.0439453,0.0908203-1.8193359,1.0161133-1.7285156,2.0605469
			C319.3740234,379.6801758,320.2978516,380.4570312,321.3427734,380.3647461"/>
	</g>
	<g>
		<path fill="#E7B529" d="M341.4677734,398.8945312c-0.3369141-3.8842773-3.7714844-6.7641602-7.6523438-6.4243164
			c-3.8837891,0.3374023-6.7666016,3.7709961-6.4267578,7.652832c0.3398438,3.8808594,3.7734375,6.7636719,7.6552734,6.4238281
			S341.8076172,402.7734375,341.4677734,398.8945312"/>
	</g>
	<g>
		<path fill="#E7B529" d="M335.0732422,385.5048828c0-2.9072266-2.3642578-5.2719727-5.2724609-5.2719727
			c-2.90625,0-5.2724609,2.3647461-5.2724609,5.2719727c0,2.90625,2.3662109,5.2714844,5.2724609,5.2714844
			C332.7089844,390.7763672,335.0732422,388.4111328,335.0732422,385.5048828"/>
	</g>
	<g>
		<path fill="#E7B529" d="M335.9101562,380.3647461c1.0439453-0.0917969,1.8222656-1.015625,1.7314453-2.0615234
			c-0.0927734-1.0458984-1.0166016-1.8212891-2.0644531-1.7294922c-1.0439453,0.0908203-1.8193359,1.0161133-1.7285156,2.0605469
			C333.9414062,379.6801758,334.8652344,380.4570312,335.9101562,380.3647461"/>
	</g>
	<g>
		<path fill="#222222" d="M300.7060547,397.9277344c-0.0478516-0.4511719-0.0830078-0.9501953-0.1064453-1.4980469
			c-0.0239258-0.5458984-0.0356445-0.9980469-0.0356445-1.3544922h-0.0708008
			c-0.4731445,0.9746094-1.2412109,1.7646484-2.3051758,2.3710938c-1.0639648,0.6054688-2.1870117,0.9091797-3.3691406,0.9091797
			c-2.1049805,0-3.6831055-0.6298828-4.7348633-1.8896484c-1.0522461-1.2597656-1.578125-2.9233398-1.578125-4.9912109v-10.2319336
			h2.4116211v9.2338867c0,0.8793945,0.0708008,1.675293,0.2128906,2.3881836
			c0.1416016,0.7133789,0.3842773,1.3251953,0.7270508,1.8364258c0.3422852,0.5112305,0.8032227,0.9091797,1.3833008,1.1943359
			c0.5786133,0.2851562,1.3061523,0.4277344,2.1806641,0.4277344c0.6386719,0,1.2592773-0.1308594,1.8623047-0.3925781
			c0.6025391-0.2607422,1.1401367-0.6591797,1.6137695-1.1938477c0.4726562-0.534668,0.8510742-1.2124023,1.1347656-2.0322266
			s0.425293-1.7880859,0.425293-2.9057617v-8.5561523h2.4116211v13.0126953c0,0.4516602,0.0117188,1.0341797,0.0356445,1.746582
			c0.0234375,0.7128906,0.0585938,1.3554688,0.1064453,1.9257812H300.7060547z"/>
	</g>
	<g>
		<path fill="#222222" d="M271.9135742,381.2426758c0.046875,0.4516602,0.0825195,0.9506836,0.1064453,1.4975586
			c0.0229492,0.546875,0.0351562,0.9980469,0.0351562,1.3544922h0.0712891
			c0.472168-0.9741211,1.2412109-1.7646484,2.3051758-2.3706055s2.1865234-0.9091797,3.3691406-0.9091797
			c2.1040039,0,3.6821289,0.6298828,4.734375,1.8896484c1.0517578,1.2597656,1.578125,2.9233398,1.578125,4.9912109v10.2319336
			h-2.4116211v-9.2338867c0-0.8789062-0.0708008-1.6757812-0.2124023-2.3886719
			c-0.1420898-0.7128906-0.3847656-1.324707-0.7270508-1.8359375c-0.3432617-0.5107422-0.8041992-0.9091797-1.3833008-1.1943359
			c-0.5795898-0.2851562-1.3066406-0.4277344-2.1811523-0.4277344c-0.6381836,0-1.2592773,0.1308594-1.8618164,0.3920898
			c-0.6030273,0.2617188-1.1411133,0.659668-1.6137695,1.1943359c-0.4731445,0.534668-0.8510742,1.2119141-1.1347656,2.0322266
			c-0.2836914,0.8198242-0.4257812,1.7885742-0.4257812,2.9052734v8.5566406H269.75v-13.0126953
			c0-0.4516602-0.012207-1.0341797-0.0351562-1.7470703c-0.0239258-0.7128906-0.0595703-1.3549805-0.1064453-1.925293H271.9135742z"
			/>
	</g>
	<g>
		<path fill="#222222" d="M359.5107422,389.0859375c0,0.1665039,0,0.3447266,0,0.534668
			c0,0.190918-0.0117188,0.3925781-0.0351562,0.605957h-13.7607422c0.0234375,0.8325195,0.1894531,1.6166992,0.4970703,2.3530273
			c0.3066406,0.7373047,0.7324219,1.3789062,1.2763672,1.925293c0.5439453,0.5473633,1.1816406,0.9804688,1.9150391,1.3012695
			c0.7324219,0.3208008,1.5253906,0.480957,2.3759766,0.480957c1.2529297,0,2.3349609-0.2905273,3.2451172-0.8730469
			c0.9101562-0.5820312,1.6015625-1.253418,2.0751953-2.0141602l1.8085938,1.4257812
			c-0.9931641,1.2602539-2.0869141,2.1635742-3.2802734,2.7094727c-1.1943359,0.546875-2.4775391,0.8203125-3.8486328,0.8203125
			c-1.2294922,0-2.3701172-0.2207031-3.421875-0.6601562c-1.0527344-0.4394531-1.9570312-1.0517578-2.7128906-1.8354492
			c-0.7578125-0.784668-1.3544922-1.7114258-1.7910156-2.7807617c-0.4384766-1.0698242-0.65625-2.2338867-0.65625-3.4941406
			c0-1.2592773,0.2128906-2.4243164,0.6376953-3.4936523c0.4257812-1.0693359,1.0166016-1.996582,1.7734375-2.7807617
			s1.6435547-1.3959961,2.6601562-1.8359375c1.0166016-0.4394531,2.1162109-0.659668,3.2978516-0.659668
			c1.3007812,0,2.4472656,0.2202148,3.4404297,0.659668c0.9931641,0.4399414,1.8203125,1.0336914,2.4824219,1.7822266
			c0.6621094,0.7490234,1.1640625,1.6220703,1.5078125,2.6206055
			C359.3388672,386.8754883,359.5107422,387.9453125,359.5107422,389.0859375z M357.0634766,388.3017578
			c-0.0703125-1.5688477-0.5732422-2.8701172-1.5068359-3.9038086c-0.9345703-1.0336914-2.2646484-1.5507812-3.9902344-1.5507812
			c-0.8037109,0-1.5488281,0.1484375-2.234375,0.4453125c-0.6855469,0.2978516-1.2880859,0.7016602-1.8085938,1.2124023
			c-0.5205078,0.5112305-0.9335938,1.0932617-1.2412109,1.7470703s-0.484375,1.3369141-0.53125,2.0498047H357.0634766z"/>
		<path fill="#222222" d="M372.171875,383.2749023h-4.6816406v9.7329102c0,0.6181641,0.0585938,1.1289062,0.1777344,1.5327148
			c0.1181641,0.4042969,0.2890625,0.7192383,0.5136719,0.9448242c0.2246094,0.2260742,0.4902344,0.3803711,0.7978516,0.4633789
			c0.3076172,0.0834961,0.6386719,0.1245117,0.9931641,0.1245117c0.3310547,0,0.6796875-0.046875,1.046875-0.1425781
			c0.3662109-0.0942383,0.7148438-0.2250977,1.0458984-0.3920898l0.1064453,2.1040039
			c-0.4257812,0.1660156-0.8691406,0.2900391-1.3300781,0.3740234c-0.4609375,0.0830078-0.9638672,0.125-1.5078125,0.125
			c-0.4492188,0-0.921875-0.0595703-1.4179688-0.1787109c-0.4970703-0.1181641-0.9580078-0.34375-1.3828125-0.6767578
			c-0.4257812-0.3330078-0.7753906-0.7841797-1.046875-1.3554688c-0.2714844-0.5703125-0.4072266-1.3188477-0.4072266-2.2456055
			v-10.4101562h-3.4404297v-2.0322266h3.4404297v-4.7055664h2.4111328v4.7055664h4.6816406V383.2749023z"/>
	</g>
	<g>
		<path fill="#222222" d="M386.3378906,385.2001953c-0.3544922-0.6894531-0.8925781-1.253418-1.6132812-1.6933594
			c-0.7216797-0.4394531-1.5429688-0.659668-2.4648438-0.659668c-0.4257812,0-0.8515625,0.0478516-1.2773438,0.1425781
			c-0.4248047,0.0952148-0.8037109,0.2495117-1.1347656,0.4633789s-0.5966797,0.4873047-0.7978516,0.8198242
			c-0.2011719,0.3334961-0.3007812,0.7255859-0.3007812,1.1767578c0,0.7841797,0.3183594,1.3847656,0.9570312,1.800293
			c0.6386719,0.4160156,1.6435547,0.7666016,3.0146484,1.0517578c1.9619141,0.4042969,3.4101562,0.9926758,4.3447266,1.7646484
			c0.9335938,0.7724609,1.4003906,1.8125,1.4003906,3.1196289c0,0.9506836-0.1826172,1.7529297-0.5498047,2.40625
			c-0.3662109,0.6538086-0.8457031,1.1889648-1.4355469,1.6040039c-0.5917969,0.4160156-1.2597656,0.7128906-2.0039062,0.8916016
			c-0.7451172,0.1787109-1.4960938,0.2675781-2.2519531,0.2675781c-1.2539062,0-2.4716797-0.2617188-3.6533203-0.7841797
			c-1.1826172-0.5224609-2.1513672-1.3427734-2.9082031-2.4604492l1.9150391-1.4257812
			c0.4257812,0.7368164,1.0517578,1.3544922,1.8798828,1.8535156c0.8271484,0.4995117,1.7373047,0.7485352,2.7304688,0.7485352
			c0.5205078,0,1.0166016-0.046875,1.4902344-0.1425781c0.4726562-0.0947266,0.8857422-0.2607422,1.2412109-0.4990234
			c0.3544922-0.2373047,0.6376953-0.5400391,0.8505859-0.9086914s0.3193359-0.8256836,0.3193359-1.3725586
			c0-0.8789062-0.4199219-1.5385742-1.2587891-1.9785156c-0.8398438-0.4394531-2.0517578-0.8496094-3.6357422-1.2304688
			c-0.4960938-0.1181641-1.0224609-0.2670898-1.578125-0.4453125s-1.0693359-0.4394531-1.5429688-0.7841797
			c-0.4726562-0.3442383-0.8632812-0.7783203-1.1699219-1.3012695c-0.3076172-0.5229492-0.4609375-1.1767578-0.4609375-1.9609375
			c0-0.8554688,0.1650391-1.5864258,0.4960938-2.1928711c0.3310547-0.605957,0.7744141-1.1049805,1.3300781-1.4970703
			s1.1884766-0.6831055,1.8974609-0.8735352c0.7099609-0.1899414,1.4423828-0.2851562,2.1992188-0.2851562
			c1.1582031,0,2.28125,0.2617188,3.3691406,0.7841797c1.0869141,0.5234375,1.9033203,1.2602539,2.4472656,2.2104492
			L386.3378906,385.2001953z"/>
	</g>
	<g>
		<path fill="#666766" d="M234.9707031,397.7861328c-1.0717773,0.4169922-2.1625977,0.625-3.2734375,0.625
			c-1.2519531,0-2.3935547-0.2197266-3.4257812-0.6601562c-1.0327148-0.4404297-1.9243164-1.0498047-2.675293-1.828125
			c-0.7509766-0.7788086-1.3339844-1.7104492-1.7480469-2.7954102c-0.4150391-1.0849609-0.6220703-2.2646484-0.6220703-3.5380859
			c0-1.2739258,0.2070312-2.4536133,0.6220703-3.5385742c0.4140625-1.0849609,0.9970703-2.0166016,1.7480469-2.7949219
			c0.7509766-0.7788086,1.6459961-1.3881836,2.6865234-1.8286133c1.0405273-0.4399414,2.1787109-0.6601562,3.4145508-0.6601562
			c1.0322266,0,2.0375977,0.1767578,3.0151367,0.5307617c0.9775391,0.3535156,1.8105469,0.8925781,2.4990234,1.6157227
			l-0.328125,0.3774414c-0.3286133-0.3457031-0.7001953-0.6489258-1.1147461-0.9082031s-0.8530273-0.4755859-1.3139648-0.6489258
			c-0.4619141-0.1728516-0.9272461-0.2983398-1.3964844-0.3769531s-0.9233398-0.1181641-1.3608398-0.1181641
			c-1.1889648,0-2.2724609,0.2163086-3.25,0.6489258c-0.9780273,0.4326172-1.8149414,1.0258789-2.5107422,1.7807617
			c-0.6962891,0.7548828-1.2363281,1.6391602-1.6191406,2.6538086c-0.3837891,1.0141602-0.5751953,2.1035156-0.5751953,3.2670898
			s0.1879883,2.2524414,0.5634766,3.2666016c0.3754883,1.0146484,0.9111328,1.8989258,1.6074219,2.6538086
			c0.6958008,0.7548828,1.5327148,1.3486328,2.5107422,1.78125c0.9775391,0.4326172,2.0683594,0.6484375,3.2734375,0.6484375
			c1.0322266,0,2.0532227-0.2001953,3.0620117-0.6015625c1.0092773-0.4013672,1.8422852-1.0019531,2.4995117-1.8046875
			l0.3754883,0.3540039C236.9301758,396.7363281,236.0419922,397.3691406,234.9707031,397.7861328z"/>
		<path fill="#666766" d="M251.4550781,393.4814453c0,0.8959961-0.1679688,1.6313477-0.5043945,2.2055664
			c-0.3364258,0.5737305-0.7666016,1.0258789-1.2905273,1.355957c-0.5244141,0.3300781-1.1030273,0.5625-1.7363281,0.6962891
			c-0.6337891,0.1337891-1.2402344,0.2001953-1.8188477,0.2001953h-5.0917969v-16.7006836h4.5288086
			c0.6254883,0,1.2470703,0.0629883,1.8657227,0.1884766c0.6176758,0.1264648,1.1689453,0.3383789,1.6542969,0.637207
			c0.484375,0.2988281,0.8759766,0.699707,1.1728516,1.203125c0.2973633,0.503418,0.4462891,1.1401367,0.4462891,1.9106445
			c0,0.5976562-0.0942383,1.1166992-0.2817383,1.5566406c-0.1879883,0.4404297-0.4423828,0.8178711-0.7626953,1.1323242
			c-0.3208008,0.3144531-0.6845703,0.5703125-1.0913086,0.7666016c-0.4067383,0.1967773-0.8212891,0.3417969-1.2436523,0.4365234
			v0.046875c0.4223633,0.0473633,0.8759766,0.1616211,1.3613281,0.3422852
			c0.484375,0.1806641,0.9345703,0.4443359,1.3491211,0.7900391c0.4145508,0.3461914,0.7587891,0.7866211,1.0322266,1.3212891
			C251.3183594,392.1054688,251.4550781,392.7421875,251.4550781,393.4814453z M250.1650391,385.2485352
			c0-0.6757812-0.1333008-1.2416992-0.3994141-1.6982422c-0.2661133-0.4555664-0.6181641-0.8173828-1.0556641-1.0849609
			c-0.4384766-0.2670898-0.9428711-0.4599609-1.5136719-0.5776367c-0.5712891-0.1181641-1.1694336-0.1772461-1.7954102-0.1772461
			h-3.871582v7.1948242h3.9892578c0.5629883,0,1.1220703-0.0708008,1.6777344-0.2124023
			c0.5551758-0.1416016,1.0517578-0.3574219,1.4902344-0.6489258c0.4375-0.2905273,0.7939453-0.6679688,1.0673828-1.1323242
			C250.027832,386.4482422,250.1650391,385.8935547,250.1650391,385.2485352z M250.9389648,393.5517578
			c0-0.7543945-0.1523438-1.3994141-0.4575195-1.934082c-0.3051758-0.5341797-0.6923828-0.9672852-1.1616211-1.2973633
			s-0.9853516-0.5698242-1.5488281-0.7192383c-0.5629883-0.1494141-1.1108398-0.2241211-1.6425781-0.2241211h-4.5991211v8.0908203
			h4.3413086c0.7192383,0,1.3920898-0.0742188,2.0180664-0.2246094c0.6254883-0.1484375,1.1616211-0.3808594,1.6074219-0.6953125
			s0.7978516-0.7197266,1.0556641-1.2148438C250.8100586,394.8378906,250.9389648,394.2441406,250.9389648,393.5517578z"/>
		<path fill="#666766" d="M259.4804688,381.7104492v16.2290039h-0.5161133v-16.2290039h-5.6552734v-0.4716797h11.8266602v0.4716797
			H259.4804688z"/>
	</g>
</g>
</svg>
