<?xml version="1.0" encoding="UTF-8"?>
<svg width="112px" height="30px" viewBox="0 0 112 30" version="1.1" xmlns="http://www.w3.org/2000/svg" xmlns:xlink="http://www.w3.org/1999/xlink">
    <!-- Generator: Sketch 50 (54983) - http://www.bohemiancoding.com/sketch -->
    <title>netflix</title>
    <desc>Created with Sketch.</desc>
    <defs></defs>
    <g id="Page-1" stroke="none" stroke-width="1" fill="none" fill-rule="evenodd">
        <g id="netflix" fill="#D8232A" fill-rule="nonzero">
            <path d="M74.2928721,0 L69.5909451,0 L69.5909451,26.2968315 C73.8640726,26.4438596 78.1192031,26.659433 82.357119,26.9419869 L82.357119,22.3089964 C79.6763399,22.1301995 76.9885184,21.9786331 74.2928721,21.8531232 L74.2928721,0 Z M111.660242,0.00266043464 L106.495086,0.00266043464 L103.090512,7.89405732 L100.031795,0.00266043464 L94.9441048,0.00266043464 L100.411298,14.1035118 L94.4433171,27.9369111 C96.0943515,28.0979457 97.7406911,28.2697785 99.3854657,28.4513141 L102.85655,20.4081159 L106.293988,29.2745621 C108.084304,29.5047679 109.869926,29.7449895 111.652416,29.999374 L111.660242,29.9963223 L105.534982,14.1987396 L111.660242,0.00266043464 Z M53.4504794,26.0670168 L58.1526411,26.0659996 L58.1526411,15.3691744 L64.5267296,15.3691744 L64.5267296,10.736184 L58.1526411,10.736184 L58.1526411,4.67759184 L66.5768292,4.67759184 L66.5768292,0.00289517888 L53.4504794,0.00289517888 L53.4504794,26.0670168 Z M35.891689,4.67727885 L40.8129453,4.67727885 L40.8129453,26.3424501 C42.3775939,26.2833729 43.9454506,26.2347025 45.5149506,26.1936223 L45.5149506,4.67727885 L50.4359722,4.67727885 L50.4359722,0.00266043464 L35.891689,0.00266043464 L35.891689,4.67727885 Z M19.8164039,27.6890212 C24.1501737,27.2951987 28.5038968,26.9706257 32.8774166,26.7187451 L32.8774166,22.0852069 C30.0830995,22.246711 27.2966854,22.4379493 24.5184092,22.6564179 L24.5184092,15.6421819 C26.3413546,15.6240284 28.7417709,15.568394 30.8683189,15.5948419 L30.8683189,10.9614602 C29.1693966,10.957313 26.4388517,10.9851694 24.5184092,11.0097393 L24.5184092,4.67759184 L32.8774166,4.67759184 L32.8774166,0.00289517888 L19.8164039,0.00289517888 L19.8164039,27.6890212 Z M10.5928335,16.9781896 L4.46874771,0.00266043464 L0,0.00266043464 L0,30 C1.56433557,29.7773059 3.13164456,29.56408 4.70200524,29.3595395 L4.70200524,13.0470844 L10.1473672,28.689736 C11.8600611,28.4911423 13.5758068,28.3030339 15.294917,28.1261933 L15.294917,0.00266043464 L10.5928335,0.00266043464 L10.5928335,16.9781896 Z M86.2335288,27.2209413 C87.8031852,27.3410521 89.3704942,27.4699266 90.9362383,27.6092083 L90.9362383,0.00266043464 L86.2335288,0.00266043464 L86.2335288,27.2209413 Z" id="Netflix_Logo_RGB"></path>
        </g>
    </g>
</svg>